<svg width="206" height="252" viewBox="0 0 206 252" fill="none" xmlns="http://www.w3.org/2000/svg">
<circle cx="103" cy="149" r="100" stroke="#7BEA71" stroke-width="6"/>
<path d="M145.791 153.8H73.7914C74.3247 164.867 77.7914 173.4 84.1914 179.4C90.7247 185.4 98.0581 188.4 106.191 188.4C114.325 188.4 121.258 186.667 126.991 183.2C132.858 179.733 136.791 176.333 138.791 173C139.858 171.667 141.058 171.467 142.391 172.4L147.791 177.8C148.591 178.6 148.991 179.333 148.991 180C148.991 180.533 148.658 181.267 147.991 182.2C147.458 183.133 146.258 184.6 144.391 186.6C142.525 188.6 139.858 190.867 136.391 193.4C133.058 195.933 128.658 198.067 123.191 199.8C117.858 201.533 112.125 202.4 105.991 202.4C91.9914 202.4 80.2581 197.8 70.7914 188.6C61.4581 179.4 56.7914 167.067 56.7914 151.6C56.7914 136 61.4581 123.733 70.7914 114.8C80.1247 105.733 91.5247 101.2 104.991 101.2C118.591 101.2 129.258 105.6 136.991 114.4C144.725 123.067 148.591 134.8 148.591 149.6C148.591 150.133 148.591 150.667 148.591 151.2C148.591 152.933 147.658 153.8 145.791 153.8ZM131.991 141.6C131.591 133.333 128.991 126.733 124.191 121.8C119.391 116.867 112.991 114.4 104.991 114.4C96.9914 114.4 90.1247 116.667 84.3914 121.2C78.6581 125.733 75.2581 132.533 74.1914 141.6H131.991Z" fill="#7BEA71"/>
</svg>
